<svg height="800" width="800" xmlns="http://www.w3.org/2000/svg" viewBox="0 0 512 512"><path d="M483.643 42.893L18.751 222.234c-11.472 4.424-11.372 20.667.133 24.978l113.278 42.279 43.845 141.006c2.806 9.031 13.849 12.369 21.179 6.377l63.142-51.475a18.838 18.838 0 0122.963-.641l113.887 82.685c7.841 5.699 18.949 1.402 20.917-8.072l83.428-401.305c2.145-10.351-8.024-18.984-17.88-15.173zm-88.599 93.519L221.27 297.943a36.025 36.025 0 00-11.164 21.553l-5.92 43.868c-.784 5.858-9.012 6.439-10.628.77l-22.766-79.994c-2.608-9.124 1.192-18.87 9.263-23.851l210.561-129.684c3.784-2.324 7.677 2.793 4.428 5.807z" fill="#e1e1e3"/><g fill="#a0a0a1"><path d="M405.003 480.205a23.474 23.474 0 01-13.823-4.511l-113.882-82.681a8.64 8.64 0 00-10.528.295l-63.14 51.473a23.49 23.49 0 01-21.66 4.31 23.517 23.517 0 01-15.703-15.566L123.908 297.3 15.317 256.77C6.056 253.299.048 244.678 0 234.804c-.047-9.865 5.873-18.534 15.08-22.085L479.972 33.377a23.52 23.52 0 0123.698 4.005 23.55 23.55 0 017.838 22.755L428.08 461.446a23.448 23.448 0 01-14.56 17.163 23.596 23.596 0 01-8.517 1.596zM272.231 370.973a28.977 28.977 0 0117.052 5.531l113.887 82.685c1.212.881 2.397.624 2.997.393.596-.23 1.64-.833 1.942-2.284L491.536 55.99c.33-1.592-.519-2.593-1.054-3.047-.531-.451-1.648-1.121-3.159-.538a.069.069 0 00-.008.003L22.423 231.751c-1.68.648-2.028 1.964-2.023 2.955.005.999.366 2.321 2.062 2.957l113.265 42.275a10.205 10.205 0 016.173 6.527l43.845 141.006c.434 1.396 1.501 1.906 2.099 2.086.595.178 1.761.343 2.885-.577l63.154-51.485a29.002 29.002 0 0118.348-6.522zm-73.481 7.313c-6.985 0-13.054-4.534-14.999-11.355l-22.768-80c-3.839-13.438 1.8-27.967 13.716-35.323l210.569-129.69a13.835 13.835 0 0118.329 3.425 13.816 13.816 0 01-1.618 18.545L228.214 305.413a25.91 25.91 0 00-8.001 15.45l-5.92 43.866c-.992 7.412-6.901 12.974-14.367 13.515-.394.028-.787.042-1.176.042zm140.912-204.32l-154.258 95.007c-4.17 2.573-6.148 7.661-4.805 12.365l16.527 58.072 2.871-21.278a46.364 46.364 0 0114.323-27.655l125.342-116.511z"/><path d="M423.776 279.45c-.717 0-1.444-.075-2.174-.234-5.505-1.195-8.999-6.627-7.804-12.131l1.55-7.14c1.195-5.505 6.626-9 12.131-7.804 5.505 1.195 8.999 6.627 7.804 12.131l-1.55 7.14c-1.036 4.776-5.262 8.038-9.957 8.038zm-32.108 147.891c-.717 0-1.444-.075-2.174-.234-5.504-1.195-8.998-6.627-7.803-12.131l23.459-108.051c1.194-5.505 6.62-8.999 12.132-7.804 5.504 1.195 8.998 6.627 7.803 12.131l-23.459 108.051c-1.038 4.777-5.263 8.038-9.958 8.038z"/></g></svg>